<svg t="1727940204312" class="icon" viewBox="0 0 1280 1024" version="1.1" xmlns="http://www.w3.org/2000/svg" p-id="4829" width="200" height="200"><path d="M157.84 339.728s-8.96 31.728-28.16 36.48c0 0 23.04 8.992 28.16 32.928 0 0 3.84-34.224 30.32-34.72 0-0.224-29.44-15.568-30.32-34.688zM494.48 0s-8.96 31.728-28.16 36.384c0 0 23.04 9.008 28.16 33.024 0 0 3.84-34.304 30.32-34.704 0-0.24-29.44-16-30.32-34.704z m-325.12 488.016c-13.6 0-24.32 10.688-24.32 24.432 0 13.648 10.72 24.416 24.32 24.416 13.68 0 24.32-10.768 24.32-24.416 0-13.744-10.64-24.432-24.32-24.432z m0 42.416a18.208 18.208 0 0 1-13.008-5.392 18.352 18.352 0 0 1-5.312-13.088 18.128 18.128 0 0 1 18.32-18.4c9.84 0 18.4 8.128 18.4 18.4 0 10.288-8.16 18.48-18.4 18.48zM904.96 64.672c-13.68 0-24.32 10.768-24.32 24.416 0 13.744 10.64 24.416 24.32 24.416s24.32-10.672 24.32-24.416c0-13.648-10.64-24.416-24.32-24.416z m0 42.4a18.128 18.128 0 0 1-13.008-5.328 18.272 18.272 0 0 1-5.312-13.056 18.128 18.128 0 0 1 18.32-18.4 18.464 18.464 0 0 1 13.008 31.456 18.128 18.128 0 0 1-13.008 5.344zM14.08 440s-4.72 15.904-14.08 18c0 0 11.52 4.736 14.08 16.304 0 0 1.68-16.72 14.96-16.72 0 0-14.56-8.112-14.96-17.6z m1250.96-119.536s-4.64 15.904-14.08 18c0 0 11.52 4.736 14.08 16.304 0 0 1.76-16.72 14.96-16.72 0-0.4-14.48-8.592-14.96-17.6z m-67.28 69.888c-5.12 0-5.12 39.04-31.28 45.792 0 0 32.24 10.928 38.24 41.376 0 0 3.2-43.072 38.16-43.952 0 0-39.68-10.272-45.12-43.216zM249.6 72.384c-9.36 0.48-17.04 7.712-17.04 17.184 0 5.952 2.96 11.968 8.48 14.944 5.6 3.04 12 3.04 17.12 0 5.52-2.976 8.48-8.512 8.48-14.944 0-9.872-7.68-17.184-17.04-17.184z m164.352 516.16l1.024 0.208c1.536-2.208 3.584-4.208 5.12-6.416-2.56 2-4.608 4-6.144 6.224z" fill="#BCD0E0" p-id="4830"></path><path d="M926.72 808.864v-0.4c-9.36-29.552-19.6-59.52-29.44-89.088-15.36-44.576-29.84-89.568-44.8-134.56-2.56-8.992-11.52-15.424-20.48-15.024H440.32c-3.44 0-7.68 0-11.92 0.896-6 1.44-10.96 5.936-13.6 11.648-0.24 0.88-0.56 1.68-0.8 2.56-13.52 40.896-28.16 84.352-41.92 125.008l-30.24 90.608-0.48-0.16-0.48 1.696c-1.28 5.536-3.36 11.568-2.96 18.4v176.96c0 6.032 0 14.544 6.4 20.56 5.52 5.552 12.4 6.032 17.92 6.032l542.32-0.48c3.84 0 11.04-0.4 16.64-5.952 4.24-3.84 6.4-8.992 6.4-16.704V821.328c0-3.856 0-8.128-0.88-12.464z m-571.28-2.08l0.32-1.44 0.48 0.16 30.32-90.88c25.76-78.4 40.64-121.44 41.84-125.056v-0.08c0.88-1.76 2.08-3.376 3.84-3.776 2.08-0.48 5.52-0.48 8.08-0.48h392.56c2.96 0 5.12 2.16 5.92 4.736 15.36 44.576 29.92 89.568 44.8 134.56 9.28 28.992 19.28 58.4 28.88 87.392H723.2c-4.72 0.4-11.92 0.8-16.64 6.432-6 5.136-6.4 12.848-6.4 16.704a67.072 67.072 0 0 1-16.64 41.536 64.4 64.4 0 0 1-46.96 22.72 68.32 68.32 0 0 1-43.04-12.848c-16.24-11.568-26.88-30.848-27.76-50.608 0-4.256-0.4-12.848-6.8-18.4-4.72-4.736-10.72-5.536-16.24-5.536H353.76c0.4-1.6 0.96-3.36 1.68-5.136z m558.08 194.88c-0.88 3.856-1.28 5.152-1.76 5.632l-0.4 0.4a18.08 18.08 0 0 1-6 0.88h-540.96c-3.44 0-7.28 0-8.96-1.76l-0.48-0.416c-1.68-1.28-1.68-5.12-1.68-8.992v-0.88h-0.4V827.344h189.44c2.96 0 5.12 0.4 5.52 0.8l0.4 0.48c1.28 1.28 1.76 5.552 1.76 7.712 1.28 24.432 14.08 47.568 34.08 62.112 14.08 10.272 31.6 15.824 48.64 15.824 1.76 0 2.56-0.8 4.72 0a82.88 82.88 0 0 0 57.6-28.288 79.728 79.728 0 0 0 20.48-51.408c0-1.28 0.88-5.136 1.68-5.952l0.48-0.48c0.4-0.4 2.08-0.8 5.92-0.8h189.92v174.32z" fill="#BCD0E0" p-id="4831"></path><path d="M874.24 328.16c-0.88-0.4-2.16-0.4-3.84 0-0.88 0.48-2.16 0.88-2.56 2.56 0 0-6 14.144-16.24 34.72-0.8 2.16-0.4 4.736 2.16 6.016 2.16 0.88 4.72 0.4 6-2.16 10.64-20.576 16.64-34.72 16.64-35.12 0.8-2.16 0-5.12-2.16-6.016z m-29.04 58.72c-0.8-0.4-2.08-0.4-2.96-0.4-0.88 0.4-2.16 0.8-2.56 2.08-6.8 12.864-14.96 25.312-23.04 37.28a5.84 5.84 0 0 0-0.4 4.736c0.4 1.696 2.08 2.576 3.84 2.576a4.624 4.624 0 0 0 4.24-2.16 809.36 809.36 0 0 0 23.92-38.56c0.4-0.8 0.4-2.096 0.4-2.976-1.28-1.28-2.56-1.696-3.44-2.56z m-37.92 59.12a8.256 8.256 0 0 0-3.04-0.88 3.84 3.84 0 0 0-2.96 1.76c-7.68 10.288-15.76 20.096-23.92 28.288a4.32 4.32 0 0 0 0.48 6.432c1.68 1.68 4.64 1.68 6.4 0a376.4 376.4 0 0 0 24.32-29.168 8.688 8.688 0 0 0 0.8-2.976c-0.4-1.28-0.8-2.56-2.08-3.456z m-41.84 45.392a5.296 5.296 0 0 0-5.12 0.48c-10.64 9.008-20.88 17.12-31.6 22.656-2.08 0.88-2.96 3.856-1.68 6.432 0.88 2.16 3.84 3.04 6.4 1.76 11.888-6.816 23.04-14.88 33.28-24a6.64 6.64 0 0 0 1.68-4.272c-0.4-1.76-1.68-3.04-2.96-3.04z m-52.88 36c-0.48-2.976-3.44-4.672-6-3.376-1.68 0.4-3.84 0.8-5.52 1.68 2.96-10.688 5.52-22.24 6.4-33.008 0-0.8-0.48-2.096-0.88-2.976-0.4-0.88-2.16-1.696-2.96-1.696-2.56 0-4.72 1.696-4.72 4.256-0.88 11.968-2.96 24.032-7.68 35.104-1.68 0-3.84 0-5.52 0.48-2.4 0-4.32 1.936-4.32 4.272 0 2.56 2.16 4.256 4.72 4.256h1.68c-1.68 4.32-3.84 8.592-5.92 12.848a4.96 4.96 0 0 0 2.08 6.032c2.16 0.88 4.72 0.4 6-1.696 2.96-6.016 6-12.048 8.08-17.984 3.84-0.48 7.68-1.76 11.52-2.576 2.56-0.48 3.84-3.04 3.04-5.632z m-40.16-1.28c-8.96-0.816-17.92-4.272-26.88-8.528a4.768 4.768 0 0 0-5.92 2.08 4.96 4.96 0 0 0 2.08 6.032c9.84 4.736 19.68 8.112 29.44 9.888l0.88-0.48a4.224 4.224 0 0 0 4.24-4.272 5.04 5.04 0 0 0-3.84-4.736z m-40.48-16.72l-8.16-6.432c-6.8-5.936-12.8-12.368-17.04-18.8-2.16-2.56-4.72-3.04-6.8-1.28-2.16 1.68-2.56 4.256-0.88 6.432 4.72 6.816 11.52 14.128 18.8 20.56 2.56 2.08 5.92 4.656 8.48 6.832 2.16 1.68 4.72 0.88 6.4-0.896 1.76-2.08 0.88-4.64-0.8-6.416z m-22.64-84.832a4.688 4.688 0 0 0-6.4 0c-11.92 12.448-16.64 28.272-12.8 44.576 0.4 2.576 2.96 3.856 5.52 2.976 2.16-0.4 3.84-3.36 3.04-5.536a35.088 35.088 0 0 1-0.48-11.568l4.32-14.144c1.92-3.52 4.16-6.832 6.8-9.872a4.72 4.72 0 0 0 0-6.432z m56.72-17.52a64.032 64.032 0 0 0-43.52 3.856c-2.08 0.8-2.96 2.976-2.56 5.552-0.4 1.68 1.28 3.84 3.44 3.84 0.4 0 0.88 0 2.16-0.384 12.32-5.632 26-6.912 37.52-3.856 2.56 0.4 4.72-0.48 6-3.056 0.4-2.56-0.48-4.656-3.04-5.952z m40.96 58.24c-2.08-20.56-9.76-36.384-21.76-46.672-2.08-1.76-4.64-0.88-6.4 0.4a4.32 4.32 0 0 0 0.48 6.432c10.64 8.112 17.04 22.24 18.72 40.736 0 1.68 0.88 2.96 2.56 3.84a6.08 6.08 0 0 0 4.72-0.48c0.88-0.8 2.16-2.56 1.68-4.256zM678.4 567.712c0.4-0.48-0.4-1.76-1.68-2.56-2.16-1.776-4.72-0.896-6.4 0.8-0.96 1.28-1.84 2.56-2.88 3.84-3.84 5.312-8 10.448-12.48 15.424-3.44 3.936-7.2 7.792-11.12 11.568a4.72 4.72 0 0 0 0 6.432c1.68 1.76 4.72 1.76 6.4 0 6-5.856 11.68-11.808 16.8-18 4-4.64 7.6-9.552 10.96-14.528a2.88 2.88 0 0 0 0.32-0.896c0.24-0.72 0.4-1.52 0.08-2.08z m-43.92 48.352c0-1.68-1.76-2.96-2.56-3.84-1.76-0.416-3.44-0.416-4.72 0.48-8.96 6.816-18.32 14.128-28.16 20.08a5.424 5.424 0 0 0-1.68 6.416c1.68 2.176 4.24 2.576 6.4 1.76 10.24-6.4 20-13.728 28.96-20.544 0.88-0.896 2.16-2.576 1.76-4.352z m-50.4 25.712c-19.6 10.768-34.08 16.704-34.08 16.704l2.96 8.608c0.4 0 14.96-6.032 34.96-17.12l-3.84-8.192z m308.48-311.36v65.056l35.04-48.592-35.04-16.48z m-100.64-56.64l80.72 32.288 115.44-98.24L896 316.752l92.08 42.496L1047.04 150.784l-255.12 122.992z m120.56 538.144c0.16 0.56 0.4 1.12 0.56 1.696 0.48 2.16 0.48 5.12 0.48 7.712v6.016h5.36v-15.424h-6.4z" fill="#BCD0E0" p-id="4832"></path></svg>