<svg height="1024" node-id="1" sillyvg="true" template-height="1024" template-width="1024" version="1.1" viewBox="0 0 1024 1024" width="1024" xmlns="http://www.w3.org/2000/svg" xmlns:xlink="http://www.w3.org/1999/xlink"><defs node-id="79"><radialGradient cx="0.5" cy="0.024677966" fx="0.5" fy="0.024677966" gradientTransform="matrix(-0.0174804 0.99965267 -0.66305562 -0.02635425 0.52510309 -0.47449796)" gradientUnits="objectBoundingBox" id="radialGradient-1" node-id="5" r="0.70727026" spreadMethod="pad"><stop offset="0" stop-color="#0052d9" stop-opacity="0.15156181"></stop><stop offset="1" stop-color="#0052d9" stop-opacity="0"></stop></radialGradient><linearGradient gradientUnits="objectBoundingBox" id="linearGradient-2" node-id="8" spreadMethod="pad" x1="0.5" x2="0.5" y1="0" y2="1"><stop offset="0" stop-color="#72a0e8"></stop><stop offset="0.9939955" stop-color="#3981f7"></stop></linearGradient><linearGradient gradientUnits="objectBoundingBox" id="linearGradient-3" node-id="11" spreadMethod="pad" x1="0.5" x2="0.5" y1="0" y2="1"><stop offset="0.0127618965" stop-color="#b7d2ff"></stop><stop offset="1" stop-color="#93bbff"></stop></linearGradient><linearGradient gradientUnits="objectBoundingBox" id="linearGradient-4" node-id="14" spreadMethod="pad" x1="0.5" x2="0.5" y1="0" y2="1"><stop offset="0" stop-color="#72a0e8"></stop><stop offset="0.9939955" stop-color="#3981f7"></stop></linearGradient><linearGradient gradientUnits="objectBoundingBox" id="linearGradient-5" node-id="17" spreadMethod="pad" x1="0.5" x2="0.5" y1="0" y2="1"><stop offset="0.0127618965" stop-color="#b7d2ff"></stop><stop offset="1" stop-color="#93bbff"></stop></linearGradient><linearGradient gradientUnits="objectBoundingBox" id="linearGradient-6" node-id="20" spreadMethod="pad" x1="0.5" x2="0.5" y1="0" y2="1"><stop offset="0" stop-color="#72a0e8"></stop><stop offset="0.9939955" stop-color="#3981f7"></stop></linearGradient><linearGradient gradientUnits="objectBoundingBox" id="linearGradient-7" node-id="23" spreadMethod="pad" x1="0.5" x2="0.5" y1="0" y2="1"><stop offset="0.0127618965" stop-color="#b7d2ff"></stop><stop offset="1" stop-color="#93bbff"></stop></linearGradient><linearGradient gradientUnits="objectBoundingBox" id="linearGradient-8" node-id="26" spreadMethod="pad" x1="0.87457746" x2="0.68628347" y1="0.061457578" y2="0.2823393"><stop offset="0" stop-color="#7dafff"></stop><stop offset="1" stop-color="#4e92ff"></stop></linearGradient><linearGradient gradientUnits="objectBoundingBox" id="linearGradient-9" node-id="29" spreadMethod="pad" x1="0.052162237" x2="0.9294781" y1="0.06070341" y2="0.911499"><stop offset="0" stop-color="#b2d3ff"></stop><stop offset="1" stop-color="#8fbaff"></stop></linearGradient><linearGradient gradientUnits="objectBoundingBox" id="linearGradient-10" node-id="32" spreadMethod="pad" x1="1" x2="0.087122954" y1="0.5" y2="0.38995928"><stop offset="0" stop-color="#77aaff"></stop><stop offset="1" stop-color="#b1ceff"></stop></linearGradient><linearGradient gradientUnits="objectBoundingBox" id="linearGradient-11" node-id="35" spreadMethod="pad" x1="0.15305278" x2="0.8640131" y1="0.1538128" y2="0.83364165"><stop offset="0" stop-color="#659fff"></stop><stop offset="1" stop-color="#a9d0ff"></stop></linearGradient><radialGradient cx="0.24042307" cy="0.5" fx="0.24042307" fy="0.5" gradientUnits="objectBoundingBox" id="radialGradient-12" node-id="38" r="0.66169447" spreadMethod="pad"><stop offset="0" stop-color="#f2f7ff"></stop><stop offset="1" stop-color="#99c0ff"></stop></radialGradient><linearGradient gradientUnits="objectBoundingBox" id="linearGradient-13" node-id="41" spreadMethod="pad" x1="1" x2="0" y1="0.5" y2="0.5"><stop offset="0" stop-color="#91bbff"></stop><stop offset="1" stop-color="#eff5ff"></stop></linearGradient></defs><g node-id="217"><path d="M 932.63 719.00 L 932.40 728.24 L 931.71 737.42 L 930.58 746.54 L 929.00 755.62 L 926.97 764.67 L 924.48 773.68 L 920.96 784.26 L 916.83 794.75 L 912.08 805.15 L 906.68 815.49 L 900.61 825.77 L 894.14 835.60 L 887.06 845.31 L 879.35 854.91 L 870.99 864.40 L 861.96 873.79 L 852.71 882.63 L 842.85 891.29 L 832.37 899.79 L 821.24 908.12 L 809.43 916.28 L 797.50 923.89 L 785.14 931.17 L 772.34 938.14 L 759.09 944.80 L 745.37 951.12 L 731.59 956.96 L 717.47 962.45 L 703.00 967.58 L 688.17 972.35 L 672.97 976.76 L 657.77 980.71 L 642.33 984.27 L 626.63 987.44 L 610.67 990.21 L 594.44 992.59 L 578.26 994.52 L 561.92 996.03 L 545.44 997.12 L 528.80 997.77 L 512.00 998.00 L 495.20 997.77 L 478.56 997.12 L 462.08 996.03 L 445.74 994.52 L 429.56 992.59 L 413.33 990.21 L 397.37 987.44 L 381.67 984.27 L 366.23 980.71 L 351.03 976.76 L 335.83 972.35 L 321.00 967.58 L 306.53 962.45 L 292.41 956.96 L 278.63 951.12 L 264.91 944.80 L 251.66 938.14 L 238.86 931.17 L 226.50 923.89 L 214.57 916.28 L 202.76 908.12 L 191.63 899.79 L 181.15 891.29 L 171.29 882.63 L 162.04 873.79 L 153.01 864.40 L 144.65 854.91 L 136.94 845.31 L 129.86 835.60 L 123.39 825.77 L 117.32 815.49 L 111.92 805.15 L 107.17 794.75 L 103.04 784.26 L 99.52 773.68 L 97.03 764.67 L 95.00 755.62 L 93.42 746.54 L 92.29 737.42 L 91.60 728.24 L 91.37 719.00 L 91.60 709.76 L 92.29 700.58 L 93.42 691.46 L 95.00 682.38 L 97.03 673.33 L 99.52 664.32 L 103.04 653.74 L 107.17 643.25 L 111.92 632.85 L 117.32 622.51 L 123.39 612.23 L 129.86 602.40 L 136.94 592.69 L 144.65 583.09 L 153.01 573.60 L 162.04 564.21 L 171.29 555.37 L 181.15 546.71 L 191.63 538.21 L 202.76 529.88 L 214.57 521.72 L 226.50 514.11 L 238.86 506.83 L 251.66 499.86 L 264.91 493.20 L 278.63 486.88 L 292.41 481.04 L 306.53 475.55 L 321.00 470.42 L 335.83 465.65 L 351.03 461.24 L 366.23 457.29 L 381.67 453.73 L 397.37 450.56 L 413.33 447.79 L 429.56 445.41 L 445.74 443.48 L 462.08 441.97 L 478.56 440.88 L 495.20 440.23 L 512.00 440.00 L 528.80 440.23 L 545.44 440.88 L 561.92 441.97 L 578.26 443.48 L 594.44 445.41 L 610.67 447.79 L 626.63 450.56 L 642.33 453.73 L 657.77 457.29 L 672.97 461.24 L 688.17 465.65 L 703.00 470.42 L 717.47 475.55 L 731.59 481.04 L 745.37 486.88 L 759.09 493.20 L 772.34 499.86 L 785.14 506.83 L 797.50 514.11 L 809.43 521.72 L 821.24 529.88 L 832.37 538.21 L 842.85 546.71 L 852.71 555.37 L 861.96 564.21 L 870.99 573.60 L 879.35 583.09 L 887.06 592.69 L 894.14 602.40 L 900.61 612.23 L 906.68 622.51 L 912.08 632.85 L 916.83 643.25 L 920.96 653.74 L 924.48 664.32 L 926.97 673.33 L 929.00 682.38 L 930.58 691.46 L 931.71 700.58 L 932.40 709.76 L 932.63 719.00 Z" fill="url(#radialGradient-1)" fill-rule="nonzero" group-id="1" id="椭圆形" node-id="46" stroke="none" target-height="558" target-width="841.26" target-x="91.37" target-y="440"></path><g node-id="219"><path d="M 229.77 537.00 L 240.15 537.00 L 240.15 591.67 L 239.95 593.12 L 239.45 594.36 L 238.63 595.44 L 237.58 596.28 L 236.37 596.80 L 234.96 597.00 L 234.96 597.00 L 233.55 596.80 L 232.35 596.28 L 231.29 595.44 L 230.48 594.36 L 229.97 593.12 L 229.77 591.67 L 229.77 537.00 Z" fill="#3f78d6" fill-rule="nonzero" group-id="1,3" node-id="164" stroke="none" target-height="60" target-width="10.37999" target-x="229.77" target-y="537"></path><path d="M 229.77 507.00 L 254.00 570.33 L 229.77 587.00 Z" fill="url(#linearGradient-2)" fill-rule="evenodd" group-id="1,3" node-id="166" stroke="none" target-height="80" target-width="24.229996" target-x="229.77" target-y="507"></path><g node-id="223"><path d="M 229.77 507.00 L 209.00 577.00 L 229.77 587.00 Z" fill="url(#linearGradient-3)" fill-rule="evenodd" group-id="1,3,7" node-id="170" stroke="none" target-height="80" target-width="20.770004" target-x="209" target-y="507"></path></g></g><g node-id="220"><path d="M 807.00 495.00 L 815.00 495.00 L 815.00 537.82 L 814.68 539.46 L 813.83 540.78 L 812.56 541.67 L 811.00 542.00 L 811.00 542.00 L 809.44 541.67 L 808.17 540.78 L 807.32 539.46 L 807.00 537.82 L 807.00 495.00 Z" fill="#3f78d6" fill-rule="nonzero" group-id="1,4" id="路径" node-id="53" stroke="none" target-height="47" target-width="8" target-x="807" target-y="495"></path><path d="M 807.00 472.00 L 826.00 521.08 L 807.00 534.00 Z" fill="url(#linearGradient-4)" fill-rule="evenodd" group-id="1,4" id="路径" node-id="54" stroke="none" target-height="62" target-width="19" target-x="807" target-y="472"></path><g node-id="224"><path d="M 807.00 472.00 L 791.00 526.25 L 807.00 534.00 Z" fill="url(#linearGradient-5)" fill-rule="evenodd" group-id="1,4,8" id="路径" node-id="56" stroke="none" target-height="62" target-width="16" target-x="791" target-y="472"></path></g></g><g node-id="221"><path d="M 281.00 463.00 L 289.00 463.00 L 289.00 504.00 L 288.68 505.57 L 287.83 506.83 L 286.57 507.68 L 285.00 508.00 L 285.00 508.00 L 283.43 507.68 L 282.17 506.83 L 281.32 505.57 L 281.00 504.00 L 281.00 463.00 Z" fill="#3f78d6" fill-rule="nonzero" group-id="1,5" id="路径" node-id="58" stroke="none" target-height="45" target-width="8" target-x="281" target-y="463"></path><path d="M 281.00 440.00 L 299.00 487.50 L 281.00 500.00 Z" fill="url(#linearGradient-6)" fill-rule="evenodd" group-id="1,5" id="路径" node-id="59" stroke="none" target-height="60" target-width="18" target-x="281" target-y="440"></path><g node-id="225"><path d="M 281.00 440.00 L 265.00 492.50 L 281.00 500.00 Z" fill="url(#linearGradient-7)" fill-rule="evenodd" group-id="1,5,9" id="路径" node-id="61" stroke="none" target-height="60" target-width="16" target-x="265" target-y="440"></path></g></g></g><g node-id="218"><g node-id="222"><path d="M 655.95 595.47 L 527.54 645.28 L 497.25 632.00 L 497.25 367.00 L 675.04 410.42 Z" fill="#72a8ff" fill-rule="evenodd" group-id="2,6" node-id="191" stroke="none" target-height="278.28003" target-width="177.78998" target-x="497.25" target-y="367"></path><path d="M 497.25 632.00 L 371.83 590.95 L 354.60 407.82 L 497.25 367.00 Z" fill="url(#linearGradient-8)" fill-rule="evenodd" group-id="2,6" node-id="193" stroke="none" target-height="265" target-width="142.65" target-x="354.6" target-y="367"></path><path d="M 354.60 407.82 L 354.60 602.82 L 527.54 649.00 L 527.54 459.53 Z" fill="url(#linearGradient-9)" fill-rule="evenodd" group-id="2,6" node-id="195" stroke="none" target-height="241.18" target-width="172.93997" target-x="354.6" target-y="407.82"></path><g node-id="226"><path d="M 395.60 521.27 L 395.60 533.00 L 462.18 555.87 L 462.18 544.04 Z" fill="#fffaf4" fill-opacity="0.8" fill-rule="nonzero" group-id="2,6,10" node-id="199" stroke="none" target-height="34.599976" target-width="66.57999" target-x="395.6" target-y="521.27"></path></g><g node-id="227"><path d="M 395.60 563.43 L 395.60 575.02 L 451.09 597.50 L 451.09 584.79 Z" fill="#fffaf4" fill-opacity="0.8" fill-rule="nonzero" group-id="2,6,11" node-id="204" stroke="none" target-height="34.070007" target-width="55.48999" target-x="395.6" target-y="563.43"></path></g><path d="M 527.54 459.53 L 527.54 649.00 L 675.04 596.56 L 675.04 410.42 Z" fill="#82b1ff" fill-rule="evenodd" group-id="2,6" node-id="207" stroke="none" target-height="238.57999" target-width="147.5" target-x="527.54" target-y="410.42"></path><path d="M 527.54 459.53 L 553.98 546.40 L 675.04 501.37 L 675.04 410.42 Z" fill="#67a1fd" fill-rule="evenodd" group-id="2,6" node-id="209" stroke="none" target-height="135.98001" target-width="147.5" target-x="527.54" target-y="410.42"></path><path d="M 527.54 459.53 L 563.59 532.39 L 711.00 471.41 L 675.04 410.42 Z" fill="url(#linearGradient-10)" fill-rule="evenodd" group-id="2,6" node-id="211" stroke="none" target-height="121.97" target-width="183.46002" target-x="527.54" target-y="410.42"></path><path d="M 354.60 407.82 L 340.00 482.26 L 527.53 546.24 L 527.53 459.53 Z" fill="#67a1fd" fill-rule="evenodd" group-id="2,6" node-id="213" stroke="none" target-height="138.41998" target-width="187.53003" target-x="340" target-y="407.82"></path><path d="M 354.60 407.82 L 340.00 482.26 L 512.80 524.25 L 527.53 459.53 Z" fill="url(#linearGradient-11)" fill-rule="evenodd" group-id="2,6" node-id="215" stroke="none" target-height="116.42999" target-width="187.53003" target-x="340" target-y="407.82"></path></g><path d="M 545.00 341.50 L 544.78 345.71 L 544.17 349.72 L 543.18 353.57 L 541.82 357.26 L 540.09 360.83 L 538.08 364.16 L 535.76 367.25 L 533.14 370.14 L 530.25 372.76 L 527.16 375.08 L 523.83 377.09 L 520.26 378.82 L 516.57 380.18 L 512.72 381.17 L 508.71 381.78 L 504.50 382.00 L 500.29 381.78 L 496.28 381.17 L 492.43 380.18 L 488.74 378.82 L 485.17 377.09 L 481.84 375.08 L 478.75 372.76 L 475.86 370.14 L 473.24 367.25 L 470.92 364.16 L 468.91 360.83 L 467.18 357.26 L 465.82 353.57 L 464.83 349.72 L 464.22 345.71 L 464.00 341.50 L 464.22 337.29 L 464.83 333.28 L 465.82 329.43 L 467.18 325.74 L 468.91 322.17 L 470.92 318.84 L 473.24 315.75 L 475.86 312.86 L 478.75 310.24 L 481.84 307.92 L 485.17 305.91 L 488.74 304.18 L 492.43 302.82 L 496.28 301.83 L 500.29 301.22 L 504.50 301.00 L 508.71 301.22 L 512.72 301.83 L 516.57 302.82 L 520.26 304.18 L 523.83 305.91 L 527.16 307.92 L 530.25 310.24 L 533.14 312.86 L 535.76 315.75 L 538.08 318.84 L 540.09 322.17 L 541.82 325.74 L 543.18 329.43 L 544.17 333.28 L 544.78 337.29 L 545.00 341.50 Z" fill="url(#radialGradient-12)" fill-rule="nonzero" group-id="2" id="椭圆形" node-id="76" stroke="none" target-height="81" target-width="81" target-x="464" target-y="301"></path><path d="M 648.00 274.00 L 647.77 277.30 L 647.14 280.40 L 646.11 283.34 L 644.71 286.13 L 643.00 288.66 L 640.97 290.97 L 638.66 293.00 L 636.13 294.71 L 633.34 296.11 L 630.40 297.14 L 627.30 297.77 L 624.00 298.00 L 620.70 297.77 L 617.60 297.14 L 614.66 296.11 L 611.87 294.71 L 609.34 293.00 L 607.03 290.97 L 605.00 288.66 L 603.29 286.13 L 601.89 283.34 L 600.86 280.40 L 600.23 277.30 L 600.00 274.00 L 600.23 270.70 L 600.86 267.60 L 601.89 264.66 L 603.29 261.87 L 605.00 259.34 L 607.03 257.03 L 609.34 255.00 L 611.87 253.29 L 614.66 251.89 L 617.60 250.86 L 620.70 250.23 L 624.00 250.00 L 627.30 250.23 L 630.40 250.86 L 633.34 251.89 L 636.13 253.29 L 638.66 255.00 L 640.97 257.03 L 643.00 259.34 L 644.71 261.87 L 646.11 264.66 L 647.14 267.60 L 647.77 270.70 L 648.00 274.00 Z" fill="url(#linearGradient-13)" fill-rule="nonzero" group-id="2" id="椭圆形" node-id="77" stroke="none" target-height="48" target-width="48" target-x="600" target-y="250"></path></g></svg>