<?xml version="1.0" standalone="no"?><!DOCTYPE svg PUBLIC "-//W3C//DTD SVG 1.1//EN" "http://www.w3.org/Graphics/SVG/1.1/DTD/svg11.dtd"><svg t="1700270691505" class="icon" viewBox="0 0 1025 1024" version="1.1" xmlns="http://www.w3.org/2000/svg" p-id="8214" xmlns:xlink="http://www.w3.org/1999/xlink" width="200.1953125" height="200"><path d="M0 464.5v124.1" fill="#5E75FF" p-id="8215"></path><path d="M1025 512C1025 229.2 795.8 0 513 0S1 229.2 1 512c0 248.7 177.4 455.8 412.5 502.2 32.2 6.3 65.4 9.8 99.5 9.8 23.2 0 46-2.1 68.4-5.1 20.2-2.7 40-6.6 59.4-11.6C861.6 950.4 1025 750.6 1025 512zM640.8 963.2V805.8c0-42-23-78.2-56.8-97.9v-19.1c145.4-11.6 255.7-70.2 255.7-195.5 0-50.4-7.5-97.2-28.4-136.8V179.7l-132.8 76.6c-40.4-12-90-18.7-151.3-18.7-61.3 0-110.9 6.7-151.3 18.7l-132.8-76.6v176.7c-20.9 39.6-28.4 86.4-28.4 136.8 0 125.3 110.3 183.9 255.7 195.5v19.1c-29.9 17.4-50.8 47.7-55.4 83.5-59.4 13.4-128 18.2-151.8-5.7-19.4-19.4-31.7-39.2-42.5-56.8-19.8-32-40.3-65.1-91.2-65.1-15.7 0-28.4 12.7-28.4 28.4s12.7 28.4 28.4 28.4c17.6 0 23.4 6.8 42.9 38.2 11.9 19.2 26.6 43.1 50.7 67.1 25.3 25.2 65 33.4 105.8 33.4 29.5 0 59.2-4.3 84.8-9.4v120.7c-211.3-45.8-370-233.9-370-458.5C43.7 253.2 254.2 42.7 513 42.7S982.3 253.2 982.3 512c0 214.5-144.7 395.4-341.5 451.2z" fill="#44444E" p-id="8216"></path></svg>